<svg width="1100" height="280" viewBox="0 0 1100 280" xmlns="http://www.w3.org/2000/svg">
  <defs>
    <style>
      .text { font-family: 'Segoe UI', Roboto, Helvetica, Arial, sans-serif; }
      .title { font-size: 18px; font-weight: bold; fill: #1a2530; }
      .label { font-size: 12px; fill: #546e7a; }
      .bg { fill: #f8f9fa; }
      .card-bg { fill: #ffffff; filter: drop-shadow(0px 2px 4px rgba(0,0,0,0.08)); }
      .tag { fill: #f1f5f9; stroke: #e2e8f0; }
      .line { stroke: #cfd8dc; stroke-width: 2; }
    </style>
    <marker id="arrow" markerWidth="10" markerHeight="10" refX="8" refY="5" orient="auto">
      <path d="M0,0 L10,5 L0,10 Z" fill="#cfd8dc"/>
    </marker>
  </defs>

  <rect x="0" y="0" width="1100" height="280" class="bg"/>
  <rect x="20" y="20" width="1060" height="240" rx="12" fill="#ffffff" stroke="#e0e0e0"/>

  <rect x="50" y="70" width="160" height="80" rx="10" class="card-bg" stroke="#e0e0e0"/>
  <text x="130" y="100" text-anchor="middle" class="text title">Input</text>
  <text x="130" y="125" text-anchor="middle" class="text label">Profile / UI</text>

  <rect x="240" y="70" width="180" height="80" rx="10" class="card-bg" stroke="#e0e0e0"/>
  <text x="330" y="100" text-anchor="middle" class="text title">Validator</text>
  <text x="330" y="125" text-anchor="middle" class="text label">InputValidator</text>

  <rect x="450" y="70" width="180" height="80" rx="10" class="card-bg" stroke="#e0e0e0"/>
  <text x="540" y="100" text-anchor="middle" class="text title">Market</text>
  <text x="540" y="125" text-anchor="middle" class="text label">MarketAnalyzer</text>

  <rect x="660" y="70" width="180" height="80" rx="10" class="card-bg" stroke="#e0e0e0"/>
  <text x="750" y="100" text-anchor="middle" class="text title">Spending</text>
  <text x="750" y="125" text-anchor="middle" class="text label">SpendingPlanner</text>

  <rect x="870" y="70" width="180" height="80" rx="10" class="card-bg" stroke="#e0e0e0"/>
  <text x="960" y="100" text-anchor="middle" class="text title">Transactions</text>
  <text x="960" y="125" text-anchor="middle" class="text label">TransactionEngine</text>

  <rect x="450" y="170" width="180" height="60" rx="8" class="tag"/>
  <text x="540" y="205" text-anchor="middle" class="text label">core.mjs → Result</text>

  <path d="M210 110 L240 110" class="line" marker-end="url(#arrow)"/>
  <path d="M420 110 L450 110" class="line" marker-end="url(#arrow)"/>
  <path d="M630 110 L660 110" class="line" marker-end="url(#arrow)"/>
  <path d="M840 110 L870 110" class="line" marker-end="url(#arrow)"/>
  <path d="M960 150 L540 185" class="line" marker-end="url(#arrow)"/>
</svg>
