<svg xmlns="http://www.w3.org/2000/svg" width="1200" height="720" viewBox="0 0 1200 720" fill="none">
  <style>
    .title { font: 700 32px 'Inter', 'Segoe UI', sans-serif; fill: #ffffff; }
    .heading { font: 700 22px 'Inter', 'Segoe UI', sans-serif; fill: #1a2530; }
    .body { font: 400 18px 'Inter', 'Segoe UI', sans-serif; fill: #2c3e50; }
  </style>
  <rect x="20" y="16" width="1160" height="96" rx="24" fill="#0d3b66"/>
  <text x="48" y="74" class="title">Kapitalfluss-Schritte – Mockup</text>

  <rect x="80" y="150" width="240" height="140" rx="18" fill="#ffffff" stroke="#d5d9e0" stroke-width="2"/>
  <text x="100" y="194" class="heading">Depot Aktien</text>
  <rect x="80" y="320" width="240" height="140" rx="18" fill="#ffffff" stroke="#d5d9e0" stroke-width="2"/>
  <text x="100" y="364" class="heading">Depot Anleihen</text>
  <rect x="440" y="150" width="320" height="140" rx="18" fill="#ffffff" stroke="#d5d9e0" stroke-width="2"/>
  <text x="460" y="194" class="heading">Geldmarkt / Tagesgeld</text>
  <rect x="900" y="150" width="220" height="140" rx="18" fill="#ffffff" stroke="#d5d9e0" stroke-width="2"/>
  <text x="920" y="194" class="heading">Ausgabenkonto</text>

  <line x1="320" y1="220" x2="440" y2="220" stroke="#c5a059" stroke-width="5" />
  <polygon points="440,220 428,212 428,228" fill="#c5a059" />
  <text x="330" y="190" class="body">1. Verkauf (Rebalancing/Runway)</text>

  <line x1="760" y1="220" x2="900" y2="220" stroke="#c5a059" stroke-width="5" />
  <polygon points="900,220 888,212 888,228" fill="#c5a059" />
  <text x="780" y="190" class="body">2. Transfer Monatsbedarf (Floor/Flex)</text>

  <rect x="880" y="330" width="260" height="140" rx="18" fill="#ffffff" stroke="#d5d9e0" stroke-width="2"/>
  <text x="900" y="372" class="heading">Fixkosten &amp; variabel</text>
  <line x1="1010" y1="290" x2="1010" y2="330" stroke="#c5a059" stroke-width="5" />
  <polygon points="1010,330 1000,316 1020,316" fill="#c5a059" />
  <text x="930" y="496" class="body">3. Auszahlung gemäß Plan</text>

  <line x1="900" y1="430" x2="760" y2="430" stroke="#c5a059" stroke-width="5" />
  <polygon points="760,430 772,438 772,422" fill="#c5a059" />
  <text x="600" y="460" class="body">4. Überschüsse zurück auf Geldmarkt</text>

  <rect x="60" y="520" width="1080" height="150" rx="18" fill="#ffffff" stroke="#d5d9e0" stroke-width="2"/>
  <text x="80" y="556" class="heading">Checkliste</text>
  <text x="80" y="590" class="body">• Reihenfolge einhalten: erst Verkäufe, dann Tagesgeld, zum Schluss Ausgabenkonto.</text>
  <text x="80" y="620" class="body">• Beträge gegen Diagnose-Panel gegenprüfen (Zielquote, Runway, Steuerpuffer).</text>
  <text x="80" y="650" class="body">• Nach jeder Transaktion Ist-Werte eintragen und Jahres-Status sichern/exportieren.</text>
</svg>
