<svg width="1100" height="300" viewBox="0 0 1100 300" xmlns="http://www.w3.org/2000/svg">
  <defs>
    <style>
      .text { font-family: 'Segoe UI', Roboto, Helvetica, Arial, sans-serif; }
      .title { font-size: 18px; font-weight: bold; fill: #1a2530; }
      .label { font-size: 12px; fill: #546e7a; }
      .bg { fill: #f8f9fa; }
      .card-bg { fill: #ffffff; filter: drop-shadow(0px 2px 4px rgba(0,0,0,0.08)); }
      .accent { fill: #fdf6e9; stroke: #e0c18a; }
      .line { stroke: #cfd8dc; stroke-width: 2; }
    </style>
    <marker id="arrow" markerWidth="10" markerHeight="10" refX="8" refY="5" orient="auto">
      <path d="M0,0 L10,5 L0,10 Z" fill="#cfd8dc"/>
    </marker>
  </defs>

  <rect x="0" y="0" width="1100" height="300" class="bg"/>
  <rect x="20" y="20" width="1060" height="260" rx="12" fill="#ffffff" stroke="#e0e0e0"/>

  <rect x="60" y="70" width="180" height="70" rx="10" class="card-bg" stroke="#e0e0e0"/>
  <text x="150" y="98" text-anchor="middle" class="text title">Profil A</text>
  <text x="150" y="122" text-anchor="middle" class="text label">Vermögen + Renten</text>

  <rect x="60" y="170" width="180" height="70" rx="10" class="card-bg" stroke="#e0e0e0"/>
  <text x="150" y="198" text-anchor="middle" class="text title">Profil B</text>
  <text x="150" y="222" text-anchor="middle" class="text label">Tranchen + Cash</text>

  <rect x="290" y="105" width="220" height="90" rx="12" class="accent"/>
  <text x="400" y="138" text-anchor="middle" class="text title">Aggregation</text>
  <text x="400" y="162" text-anchor="middle" class="text label">Tagesgeld / Depot</text>
  <text x="400" y="182" text-anchor="middle" class="text label">Gold + Renten</text>

  <rect x="560" y="70" width="200" height="70" rx="10" class="card-bg" stroke="#e0e0e0"/>
  <text x="660" y="98" text-anchor="middle" class="text title">Balance-App</text>
  <text x="660" y="122" text-anchor="middle" class="text label">Diagnose</text>

  <rect x="560" y="170" width="200" height="70" rx="10" class="card-bg" stroke="#e0e0e0"/>
  <text x="660" y="198" text-anchor="middle" class="text title">Simulator</text>
  <text x="660" y="222" text-anchor="middle" class="text label">MC + Sweep</text>

  <rect x="800" y="110" width="240" height="80" rx="10" class="card-bg" stroke="#e0e0e0"/>
  <text x="920" y="138" text-anchor="middle" class="text title">Verteilungsmodus</text>
  <text x="920" y="162" text-anchor="middle" class="text label">steueropt. / proportional</text>

  <path d="M240 105 L290 135" class="line" marker-end="url(#arrow)"/>
  <path d="M240 205 L290 165" class="line" marker-end="url(#arrow)"/>
  <path d="M510 145 L560 105" class="line" marker-end="url(#arrow)"/>
  <path d="M510 175 L560 205" class="line" marker-end="url(#arrow)"/>
  <path d="M760 150 L800 150" class="line" marker-end="url(#arrow)"/>
</svg>
